<?xml version="1.0" encoding="utf-8"?>
<!-- Generator: Adobe Illustrator 23.0.3, SVG Export Plug-In . SVG Version: 6.00 Build 0)  -->
<svg version="1.1" id="Layer_1" xmlns="http://www.w3.org/2000/svg" xmlns:xlink="http://www.w3.org/1999/xlink" x="0px" y="0px"
	 viewBox="0 0 72 72" style="enable-background:new 0 0 72 72;" xml:space="preserve">
<style type="text/css">
	.st0{fill:#211F1F;}
	.st1{fill:#FFFFFF;}
</style>
<g id="Twitter">
	<rect class="st0" width="72" height="72"/>
</g>
<g id="Guides">
</g>
<path class="st1" d="M36,18.2c-9.9,0-18,8.1-18,18c0,8.5,5.8,15.5,13.6,17.5c-0.1-0.2-0.1-0.5-0.1-0.9v-3.1h-2.3
	c-1.2,0-2.3-0.5-2.8-1.5c-0.6-1.1-0.7-2.7-2.2-3.8c-0.5-0.4-0.1-0.7,0.4-0.7c0.9,0.3,1.7,0.9,2.4,1.8c0.7,0.9,1,1.2,2.4,1.2
	c0.6,0,1.6,0,2.5-0.2c0.5-1.3,1.3-2.4,2.4-2.9c-6-0.7-8.9-3.7-8.9-7.7c0-1.8,0.8-3.4,2-4.9c-0.4-1.4-0.9-4.3,0.2-5.4
	c2.7,0,4.3,1.8,4.7,2.2c1.3-0.5,2.8-0.7,4.4-0.7c1.6,0,3,0.3,4.4,0.7c0.4-0.5,2-2.2,4.7-2.2c1.1,1.1,0.6,4,0.1,5.4
	c1.3,1.4,2,3.1,2,4.9c0,4.1-2.8,7-8.8,7.7c1.7,0.9,2.8,3.3,2.8,5.1v4.1c0,0.1,0,0.3,0,0.4c7-2.4,12.1-9.1,12.1-17
	C54,26.3,45.9,18.2,36,18.2L36,18.2z"/>
</svg>
