<svg xmlns="http://www.w3.org/2000/svg" width="960" viewBox="0 0 960 540" height="540" version="1.0"><g fill="#8C52FF" fill-opacity=".302"><g><g><path d="M 43.125 0 L 30.90625 0 L 1.296875 -95.15625 L 12.65625 -95.15625 L 37.078125 -15.234375 L 62.671875 -95.15625 L 75.03125 -95.15625 L 100.609375 -15.234375 L 125.046875 -95.15625 L 136.40625 -95.15625 L 106.796875 0 L 94.578125 0 L 68.84375 -79.921875 Z M 43.125 0" transform="translate(207.99 245.31)"/></g></g></g><g fill="#8C52FF" fill-opacity=".302"><g><g><path d="M 41.390625 -8.625 C 51.066406 -8.625 58.015625 -12.648438 62.234375 -20.703125 L 74.015625 -20.703125 C 71.523438 -14.179688 67.570312 -8.90625 62.15625 -4.875 C 56.75 -0.851562 49.78125 1.15625 41.25 1.15625 C 30.425781 1.15625 21.609375 -2.4375 14.796875 -9.625 C 8.191406 -16.625 4.890625 -25.394531 4.890625 -35.9375 C 4.890625 -46.570312 8.050781 -55.335938 14.375 -62.234375 C 21.082031 -69.421875 29.800781 -73.015625 40.53125 -73.015625 C 51.257812 -73.015625 59.976562 -69.421875 66.6875 -62.234375 C 73.007812 -55.335938 76.171875 -46.570312 76.171875 -35.9375 L 76.171875 -31.625 L 15.953125 -31.625 C 16.722656 -25.007812 19.359375 -19.546875 23.859375 -15.234375 C 28.460938 -10.828125 34.304688 -8.625 41.390625 -8.625 Z M 40.53125 -63.25 C 33.914062 -63.25 28.359375 -61.1875 23.859375 -57.0625 C 19.640625 -53.132812 17.050781 -48.007812 16.09375 -41.6875 L 64.96875 -41.6875 C 64.007812 -48.007812 61.421875 -53.132812 57.203125 -57.0625 C 52.703125 -61.1875 47.144531 -63.25 40.53125 -63.25 Z M 40.53125 -63.25" transform="translate(345.686 245.31)"/></g></g></g><g fill="#8C52FF" fill-opacity=".302"><g><g><path d="M 20.125 -60.21875 C 25.96875 -68.75 34.539062 -73.015625 45.84375 -73.015625 C 56.195312 -73.015625 64.582031 -69.421875 71 -62.234375 C 77.425781 -55.140625 80.640625 -46.375 80.640625 -35.9375 C 80.640625 -25.488281 77.425781 -16.71875 71 -9.625 C 64.582031 -2.4375 55.9375 1.15625 45.0625 1.15625 C 34.1875 1.15625 25.875 -3.0625 20.125 -11.5 L 20.125 0 L 9.34375 0 L 9.34375 -100.609375 L 20.125 -100.609375 Z M 44.40625 -8.625 C 52.070312 -8.625 58.300781 -11.304688 63.09375 -16.671875 C 67.601562 -21.753906 69.859375 -28.175781 69.859375 -35.9375 C 69.859375 -43.695312 67.601562 -50.113281 63.09375 -55.1875 C 58.300781 -60.5625 52.070312 -63.25 44.40625 -63.25 C 36.644531 -63.25 30.515625 -60.5625 26.015625 -55.1875 C 21.703125 -50.113281 19.546875 -43.695312 19.546875 -35.9375 C 19.546875 -28.175781 21.703125 -21.753906 26.015625 -16.671875 C 30.515625 -11.304688 36.644531 -8.625 44.40625 -8.625 Z M 44.40625 -8.625" transform="translate(425.746 245.31)"/></g></g></g><g fill="#8C52FF" fill-opacity=".302"><g><g><path d="M 51.59375 -52.609375 C 50.632812 -60.078125 44.617188 -63.8125 33.546875 -63.8125 C 22.484375 -63.8125 16.953125 -60.363281 16.953125 -53.46875 C 16.953125 -50.59375 18.125 -48.410156 20.46875 -46.921875 C 22.820312 -45.441406 25.769531 -44.222656 29.3125 -43.265625 C 32.863281 -42.304688 36.722656 -41.421875 40.890625 -40.609375 C 45.054688 -39.796875 48.910156 -38.644531 52.453125 -37.15625 C 56.003906 -35.664062 58.953125 -33.628906 61.296875 -31.046875 C 63.648438 -28.460938 64.828125 -24.914062 64.828125 -20.40625 C 64.828125 -13.414062 62.191406 -8.070312 56.921875 -4.375 C 51.648438 -0.6875 44.507812 1.15625 35.5 1.15625 C 25.914062 1.15625 18.300781 -1.238281 12.65625 -6.03125 C 7.476562 -10.25 4.695312 -15.757812 4.3125 -22.5625 L 15.515625 -22.5625 C 16.191406 -15.957031 19.929688 -11.503906 26.734375 -9.203125 C 29.222656 -8.429688 31.6875 -8.046875 34.125 -8.046875 C 36.570312 -8.046875 38.847656 -8.1875 40.953125 -8.46875 C 43.066406 -8.757812 45.128906 -9.289062 47.140625 -10.0625 C 51.742188 -11.882812 54.046875 -15 54.046875 -19.40625 C 54.046875 -22.375 52.867188 -24.648438 50.515625 -26.234375 C 48.171875 -27.816406 45.222656 -29.109375 41.671875 -30.109375 C 38.128906 -31.117188 34.273438 -32.03125 30.109375 -32.84375 C 25.941406 -33.65625 22.082031 -34.78125 18.53125 -36.21875 C 14.988281 -37.65625 12.046875 -39.617188 9.703125 -42.109375 C 7.359375 -44.597656 6.1875 -48.050781 6.1875 -52.46875 C 6.1875 -58.976562 8.554688 -64.03125 13.296875 -67.625 C 18.035156 -71.21875 25.054688 -73.015625 34.359375 -73.015625 C 43.171875 -73.015625 50.113281 -70.90625 55.1875 -66.6875 C 59.40625 -63.144531 61.851562 -58.453125 62.53125 -52.609375 Z M 51.59375 -52.609375" transform="translate(511.124 245.31)"/></g></g></g><g fill="#8C52FF" fill-opacity=".302"><g><g><path d="M 9.34375 -71.875 L 20.125 -71.875 L 20.125 0 L 9.34375 0 Z M 20.546875 -98.03125 L 20.546875 -83.9375 L 8.90625 -83.9375 L 8.90625 -98.03125 Z M 20.546875 -98.03125" transform="translate(580.403 245.31)"/></g></g></g><g fill="#8C52FF" fill-opacity=".302"><g><g><path d="M 17.109375 0 L 17.109375 -62.375 L 2.4375 -62.375 L 2.4375 -71.875 L 17.109375 -71.875 L 17.109375 -97.59375 L 27.890625 -97.59375 L 27.890625 -71.875 L 44.40625 -71.875 L 44.40625 -62.375 L 27.890625 -62.375 L 27.890625 0 Z M 17.109375 0" transform="translate(609.869 245.31)"/></g></g></g><g fill="#8C52FF" fill-opacity=".302"><g><g><path d="M 41.390625 -8.625 C 51.066406 -8.625 58.015625 -12.648438 62.234375 -20.703125 L 74.015625 -20.703125 C 71.523438 -14.179688 67.570312 -8.90625 62.15625 -4.875 C 56.75 -0.851562 49.78125 1.15625 41.25 1.15625 C 30.425781 1.15625 21.609375 -2.4375 14.796875 -9.625 C 8.191406 -16.625 4.890625 -25.394531 4.890625 -35.9375 C 4.890625 -46.570312 8.050781 -55.335938 14.375 -62.234375 C 21.082031 -69.421875 29.800781 -73.015625 40.53125 -73.015625 C 51.257812 -73.015625 59.976562 -69.421875 66.6875 -62.234375 C 73.007812 -55.335938 76.171875 -46.570312 76.171875 -35.9375 L 76.171875 -31.625 L 15.953125 -31.625 C 16.722656 -25.007812 19.359375 -19.546875 23.859375 -15.234375 C 28.460938 -10.828125 34.304688 -8.625 41.390625 -8.625 Z M 40.53125 -63.25 C 33.914062 -63.25 28.359375 -61.1875 23.859375 -57.0625 C 19.640625 -53.132812 17.050781 -48.007812 16.09375 -41.6875 L 64.96875 -41.6875 C 64.007812 -48.007812 61.421875 -53.132812 57.203125 -57.0625 C 52.703125 -61.1875 47.144531 -63.25 40.53125 -63.25 Z M 40.53125 -63.25" transform="translate(656.726 245.31)"/></g></g></g><g fill="#8C52FF" fill-opacity=".502"><g><g><path d="M 43.125 0 L 30.90625 0 L 1.296875 -95.15625 L 12.65625 -95.15625 L 37.078125 -15.234375 L 62.671875 -95.15625 L 75.03125 -95.15625 L 100.609375 -15.234375 L 125.046875 -95.15625 L 136.40625 -95.15625 L 106.796875 0 L 94.578125 0 L 68.84375 -79.921875 Z M 43.125 0" transform="translate(211.793 246.925)"/></g></g></g><g fill="#8C52FF" fill-opacity=".502"><g><g><path d="M 41.390625 -8.625 C 51.066406 -8.625 58.015625 -12.648438 62.234375 -20.703125 L 74.015625 -20.703125 C 71.523438 -14.179688 67.570312 -8.90625 62.15625 -4.875 C 56.75 -0.851562 49.78125 1.15625 41.25 1.15625 C 30.425781 1.15625 21.609375 -2.4375 14.796875 -9.625 C 8.191406 -16.625 4.890625 -25.394531 4.890625 -35.9375 C 4.890625 -46.570312 8.050781 -55.335938 14.375 -62.234375 C 21.082031 -69.421875 29.800781 -73.015625 40.53125 -73.015625 C 51.257812 -73.015625 59.976562 -69.421875 66.6875 -62.234375 C 73.007812 -55.335938 76.171875 -46.570312 76.171875 -35.9375 L 76.171875 -31.625 L 15.953125 -31.625 C 16.722656 -25.007812 19.359375 -19.546875 23.859375 -15.234375 C 28.460938 -10.828125 34.304688 -8.625 41.390625 -8.625 Z M 40.53125 -63.25 C 33.914062 -63.25 28.359375 -61.1875 23.859375 -57.0625 C 19.640625 -53.132812 17.050781 -48.007812 16.09375 -41.6875 L 64.96875 -41.6875 C 64.007812 -48.007812 61.421875 -53.132812 57.203125 -57.0625 C 52.703125 -61.1875 47.144531 -63.25 40.53125 -63.25 Z M 40.53125 -63.25" transform="translate(349.49 246.925)"/></g></g></g><g fill="#8C52FF" fill-opacity=".502"><g><g><path d="M 20.125 -60.21875 C 25.96875 -68.75 34.539062 -73.015625 45.84375 -73.015625 C 56.195312 -73.015625 64.582031 -69.421875 71 -62.234375 C 77.425781 -55.140625 80.640625 -46.375 80.640625 -35.9375 C 80.640625 -25.488281 77.425781 -16.71875 71 -9.625 C 64.582031 -2.4375 55.9375 1.15625 45.0625 1.15625 C 34.1875 1.15625 25.875 -3.0625 20.125 -11.5 L 20.125 0 L 9.34375 0 L 9.34375 -100.609375 L 20.125 -100.609375 Z M 44.40625 -8.625 C 52.070312 -8.625 58.300781 -11.304688 63.09375 -16.671875 C 67.601562 -21.753906 69.859375 -28.175781 69.859375 -35.9375 C 69.859375 -43.695312 67.601562 -50.113281 63.09375 -55.1875 C 58.300781 -60.5625 52.070312 -63.25 44.40625 -63.25 C 36.644531 -63.25 30.515625 -60.5625 26.015625 -55.1875 C 21.703125 -50.113281 19.546875 -43.695312 19.546875 -35.9375 C 19.546875 -28.175781 21.703125 -21.753906 26.015625 -16.671875 C 30.515625 -11.304688 36.644531 -8.625 44.40625 -8.625 Z M 44.40625 -8.625" transform="translate(429.55 246.925)"/></g></g></g><g fill="#8C52FF" fill-opacity=".502"><g><g><path d="M 51.59375 -52.609375 C 50.632812 -60.078125 44.617188 -63.8125 33.546875 -63.8125 C 22.484375 -63.8125 16.953125 -60.363281 16.953125 -53.46875 C 16.953125 -50.59375 18.125 -48.410156 20.46875 -46.921875 C 22.820312 -45.441406 25.769531 -44.222656 29.3125 -43.265625 C 32.863281 -42.304688 36.722656 -41.421875 40.890625 -40.609375 C 45.054688 -39.796875 48.910156 -38.644531 52.453125 -37.15625 C 56.003906 -35.664062 58.953125 -33.628906 61.296875 -31.046875 C 63.648438 -28.460938 64.828125 -24.914062 64.828125 -20.40625 C 64.828125 -13.414062 62.191406 -8.070312 56.921875 -4.375 C 51.648438 -0.6875 44.507812 1.15625 35.5 1.15625 C 25.914062 1.15625 18.300781 -1.238281 12.65625 -6.03125 C 7.476562 -10.25 4.695312 -15.757812 4.3125 -22.5625 L 15.515625 -22.5625 C 16.191406 -15.957031 19.929688 -11.503906 26.734375 -9.203125 C 29.222656 -8.429688 31.6875 -8.046875 34.125 -8.046875 C 36.570312 -8.046875 38.847656 -8.1875 40.953125 -8.46875 C 43.066406 -8.757812 45.128906 -9.289062 47.140625 -10.0625 C 51.742188 -11.882812 54.046875 -15 54.046875 -19.40625 C 54.046875 -22.375 52.867188 -24.648438 50.515625 -26.234375 C 48.171875 -27.816406 45.222656 -29.109375 41.671875 -30.109375 C 38.128906 -31.117188 34.273438 -32.03125 30.109375 -32.84375 C 25.941406 -33.65625 22.082031 -34.78125 18.53125 -36.21875 C 14.988281 -37.65625 12.046875 -39.617188 9.703125 -42.109375 C 7.359375 -44.597656 6.1875 -48.050781 6.1875 -52.46875 C 6.1875 -58.976562 8.554688 -64.03125 13.296875 -67.625 C 18.035156 -71.21875 25.054688 -73.015625 34.359375 -73.015625 C 43.171875 -73.015625 50.113281 -70.90625 55.1875 -66.6875 C 59.40625 -63.144531 61.851562 -58.453125 62.53125 -52.609375 Z M 51.59375 -52.609375" transform="translate(514.928 246.925)"/></g></g></g><g fill="#8C52FF" fill-opacity=".502"><g><g><path d="M 9.34375 -71.875 L 20.125 -71.875 L 20.125 0 L 9.34375 0 Z M 20.546875 -98.03125 L 20.546875 -83.9375 L 8.90625 -83.9375 L 8.90625 -98.03125 Z M 20.546875 -98.03125" transform="translate(584.207 246.925)"/></g></g></g><g fill="#8C52FF" fill-opacity=".502"><g><g><path d="M 17.109375 0 L 17.109375 -62.375 L 2.4375 -62.375 L 2.4375 -71.875 L 17.109375 -71.875 L 17.109375 -97.59375 L 27.890625 -97.59375 L 27.890625 -71.875 L 44.40625 -71.875 L 44.40625 -62.375 L 27.890625 -62.375 L 27.890625 0 Z M 17.109375 0" transform="translate(613.673 246.925)"/></g></g></g><g fill="#8C52FF" fill-opacity=".502"><g><g><path d="M 41.390625 -8.625 C 51.066406 -8.625 58.015625 -12.648438 62.234375 -20.703125 L 74.015625 -20.703125 C 71.523438 -14.179688 67.570312 -8.90625 62.15625 -4.875 C 56.75 -0.851562 49.78125 1.15625 41.25 1.15625 C 30.425781 1.15625 21.609375 -2.4375 14.796875 -9.625 C 8.191406 -16.625 4.890625 -25.394531 4.890625 -35.9375 C 4.890625 -46.570312 8.050781 -55.335938 14.375 -62.234375 C 21.082031 -69.421875 29.800781 -73.015625 40.53125 -73.015625 C 51.257812 -73.015625 59.976562 -69.421875 66.6875 -62.234375 C 73.007812 -55.335938 76.171875 -46.570312 76.171875 -35.9375 L 76.171875 -31.625 L 15.953125 -31.625 C 16.722656 -25.007812 19.359375 -19.546875 23.859375 -15.234375 C 28.460938 -10.828125 34.304688 -8.625 41.390625 -8.625 Z M 40.53125 -63.25 C 33.914062 -63.25 28.359375 -61.1875 23.859375 -57.0625 C 19.640625 -53.132812 17.050781 -48.007812 16.09375 -41.6875 L 64.96875 -41.6875 C 64.007812 -48.007812 61.421875 -53.132812 57.203125 -57.0625 C 52.703125 -61.1875 47.144531 -63.25 40.53125 -63.25 Z M 40.53125 -63.25" transform="translate(660.53 246.925)"/></g></g></g><g fill="#E7E5E5"><g><g><path d="M 43.125 0 L 30.90625 0 L 1.296875 -95.15625 L 12.65625 -95.15625 L 37.078125 -15.234375 L 62.671875 -95.15625 L 75.03125 -95.15625 L 100.609375 -15.234375 L 125.046875 -95.15625 L 136.40625 -95.15625 L 106.796875 0 L 94.578125 0 L 68.84375 -79.921875 Z M 43.125 0" transform="translate(215.597 248.54)"/></g></g></g><g fill="#E7E5E5"><g><g><path d="M 41.390625 -8.625 C 51.066406 -8.625 58.015625 -12.648438 62.234375 -20.703125 L 74.015625 -20.703125 C 71.523438 -14.179688 67.570312 -8.90625 62.15625 -4.875 C 56.75 -0.851562 49.78125 1.15625 41.25 1.15625 C 30.425781 1.15625 21.609375 -2.4375 14.796875 -9.625 C 8.191406 -16.625 4.890625 -25.394531 4.890625 -35.9375 C 4.890625 -46.570312 8.050781 -55.335938 14.375 -62.234375 C 21.082031 -69.421875 29.800781 -73.015625 40.53125 -73.015625 C 51.257812 -73.015625 59.976562 -69.421875 66.6875 -62.234375 C 73.007812 -55.335938 76.171875 -46.570312 76.171875 -35.9375 L 76.171875 -31.625 L 15.953125 -31.625 C 16.722656 -25.007812 19.359375 -19.546875 23.859375 -15.234375 C 28.460938 -10.828125 34.304688 -8.625 41.390625 -8.625 Z M 40.53125 -63.25 C 33.914062 -63.25 28.359375 -61.1875 23.859375 -57.0625 C 19.640625 -53.132812 17.050781 -48.007812 16.09375 -41.6875 L 64.96875 -41.6875 C 64.007812 -48.007812 61.421875 -53.132812 57.203125 -57.0625 C 52.703125 -61.1875 47.144531 -63.25 40.53125 -63.25 Z M 40.53125 -63.25" transform="translate(353.294 248.54)"/></g></g></g><g fill="#E7E5E5"><g><g><path d="M 20.125 -60.21875 C 25.96875 -68.75 34.539062 -73.015625 45.84375 -73.015625 C 56.195312 -73.015625 64.582031 -69.421875 71 -62.234375 C 77.425781 -55.140625 80.640625 -46.375 80.640625 -35.9375 C 80.640625 -25.488281 77.425781 -16.71875 71 -9.625 C 64.582031 -2.4375 55.9375 1.15625 45.0625 1.15625 C 34.1875 1.15625 25.875 -3.0625 20.125 -11.5 L 20.125 0 L 9.34375 0 L 9.34375 -100.609375 L 20.125 -100.609375 Z M 44.40625 -8.625 C 52.070312 -8.625 58.300781 -11.304688 63.09375 -16.671875 C 67.601562 -21.753906 69.859375 -28.175781 69.859375 -35.9375 C 69.859375 -43.695312 67.601562 -50.113281 63.09375 -55.1875 C 58.300781 -60.5625 52.070312 -63.25 44.40625 -63.25 C 36.644531 -63.25 30.515625 -60.5625 26.015625 -55.1875 C 21.703125 -50.113281 19.546875 -43.695312 19.546875 -35.9375 C 19.546875 -28.175781 21.703125 -21.753906 26.015625 -16.671875 C 30.515625 -11.304688 36.644531 -8.625 44.40625 -8.625 Z M 44.40625 -8.625" transform="translate(433.354 248.54)"/></g></g></g><g fill="#E7E5E5"><g><g><path d="M 51.59375 -52.609375 C 50.632812 -60.078125 44.617188 -63.8125 33.546875 -63.8125 C 22.484375 -63.8125 16.953125 -60.363281 16.953125 -53.46875 C 16.953125 -50.59375 18.125 -48.410156 20.46875 -46.921875 C 22.820312 -45.441406 25.769531 -44.222656 29.3125 -43.265625 C 32.863281 -42.304688 36.722656 -41.421875 40.890625 -40.609375 C 45.054688 -39.796875 48.910156 -38.644531 52.453125 -37.15625 C 56.003906 -35.664062 58.953125 -33.628906 61.296875 -31.046875 C 63.648438 -28.460938 64.828125 -24.914062 64.828125 -20.40625 C 64.828125 -13.414062 62.191406 -8.070312 56.921875 -4.375 C 51.648438 -0.6875 44.507812 1.15625 35.5 1.15625 C 25.914062 1.15625 18.300781 -1.238281 12.65625 -6.03125 C 7.476562 -10.25 4.695312 -15.757812 4.3125 -22.5625 L 15.515625 -22.5625 C 16.191406 -15.957031 19.929688 -11.503906 26.734375 -9.203125 C 29.222656 -8.429688 31.6875 -8.046875 34.125 -8.046875 C 36.570312 -8.046875 38.847656 -8.1875 40.953125 -8.46875 C 43.066406 -8.757812 45.128906 -9.289062 47.140625 -10.0625 C 51.742188 -11.882812 54.046875 -15 54.046875 -19.40625 C 54.046875 -22.375 52.867188 -24.648438 50.515625 -26.234375 C 48.171875 -27.816406 45.222656 -29.109375 41.671875 -30.109375 C 38.128906 -31.117188 34.273438 -32.03125 30.109375 -32.84375 C 25.941406 -33.65625 22.082031 -34.78125 18.53125 -36.21875 C 14.988281 -37.65625 12.046875 -39.617188 9.703125 -42.109375 C 7.359375 -44.597656 6.1875 -48.050781 6.1875 -52.46875 C 6.1875 -58.976562 8.554688 -64.03125 13.296875 -67.625 C 18.035156 -71.21875 25.054688 -73.015625 34.359375 -73.015625 C 43.171875 -73.015625 50.113281 -70.90625 55.1875 -66.6875 C 59.40625 -63.144531 61.851562 -58.453125 62.53125 -52.609375 Z M 51.59375 -52.609375" transform="translate(518.731 248.54)"/></g></g></g><g fill="#E7E5E5"><g><g><path d="M 9.34375 -71.875 L 20.125 -71.875 L 20.125 0 L 9.34375 0 Z M 20.546875 -98.03125 L 20.546875 -83.9375 L 8.90625 -83.9375 L 8.90625 -98.03125 Z M 20.546875 -98.03125" transform="translate(588.011 248.54)"/></g></g></g><g fill="#E7E5E5"><g><g><path d="M 17.109375 0 L 17.109375 -62.375 L 2.4375 -62.375 L 2.4375 -71.875 L 17.109375 -71.875 L 17.109375 -97.59375 L 27.890625 -97.59375 L 27.890625 -71.875 L 44.40625 -71.875 L 44.40625 -62.375 L 27.890625 -62.375 L 27.890625 0 Z M 17.109375 0" transform="translate(617.477 248.54)"/></g></g></g><g fill="#E7E5E5"><g><g><path d="M 41.390625 -8.625 C 51.066406 -8.625 58.015625 -12.648438 62.234375 -20.703125 L 74.015625 -20.703125 C 71.523438 -14.179688 67.570312 -8.90625 62.15625 -4.875 C 56.75 -0.851562 49.78125 1.15625 41.25 1.15625 C 30.425781 1.15625 21.609375 -2.4375 14.796875 -9.625 C 8.191406 -16.625 4.890625 -25.394531 4.890625 -35.9375 C 4.890625 -46.570312 8.050781 -55.335938 14.375 -62.234375 C 21.082031 -69.421875 29.800781 -73.015625 40.53125 -73.015625 C 51.257812 -73.015625 59.976562 -69.421875 66.6875 -62.234375 C 73.007812 -55.335938 76.171875 -46.570312 76.171875 -35.9375 L 76.171875 -31.625 L 15.953125 -31.625 C 16.722656 -25.007812 19.359375 -19.546875 23.859375 -15.234375 C 28.460938 -10.828125 34.304688 -8.625 41.390625 -8.625 Z M 40.53125 -63.25 C 33.914062 -63.25 28.359375 -61.1875 23.859375 -57.0625 C 19.640625 -53.132812 17.050781 -48.007812 16.09375 -41.6875 L 64.96875 -41.6875 C 64.007812 -48.007812 61.421875 -53.132812 57.203125 -57.0625 C 52.703125 -61.1875 47.144531 -63.25 40.53125 -63.25 Z M 40.53125 -63.25" transform="translate(664.334 248.54)"/></g></g></g><g fill="#8C52FF" fill-opacity=".302"><g><g><path d="M 18.390625 -82.078125 C 22.421875 -86.484375 27.3125 -89.953125 33.0625 -92.484375 C 38.8125 -95.023438 44.75 -96.296875 50.875 -96.296875 C 57.007812 -96.296875 62.328125 -95.625 66.828125 -94.28125 C 71.335938 -92.945312 75.410156 -91.128906 79.046875 -88.828125 C 86.617188 -83.941406 92.179688 -77.425781 95.734375 -69.28125 L 83.9375 -69.28125 C 81.0625 -74.457031 77.0625 -78.503906 71.9375 -81.421875 C 66.8125 -84.347656 60.988281 -85.8125 54.46875 -85.8125 C 47.957031 -85.8125 42.398438 -84.828125 37.796875 -82.859375 C 33.203125 -80.898438 29.320312 -78.191406 26.15625 -74.734375 C 19.644531 -67.648438 16.390625 -58.597656 16.390625 -47.578125 C 16.390625 -36.460938 19.597656 -27.40625 26.015625 -20.40625 C 32.816406 -13.03125 41.820312 -9.34375 53.03125 -9.34375 C 62.039062 -9.34375 69.804688 -12.117188 76.328125 -17.671875 C 83.222656 -23.523438 86.671875 -31.242188 86.671875 -40.828125 L 51.890625 -40.828125 L 51.890625 -50.59375 L 96.59375 -50.59375 L 96.59375 0 L 86.671875 0 L 86.671875 -16.8125 C 81.210938 -8.570312 73.644531 -3.0625 63.96875 -0.28125 C 60.414062 0.675781 55.738281 1.15625 49.9375 1.15625 C 44.144531 1.15625 38.375 -0.113281 32.625 -2.65625 C 26.875 -5.195312 21.988281 -8.671875 17.96875 -13.078125 C 9.726562 -22.085938 5.609375 -33.585938 5.609375 -47.578125 C 5.609375 -61.378906 9.867188 -72.878906 18.390625 -82.078125 Z M 18.390625 -82.078125" transform="translate(143.386 374.072)"/></g></g></g><g fill="#8C52FF" fill-opacity=".302"><g><g><path d="M 41.390625 -8.625 C 51.066406 -8.625 58.015625 -12.648438 62.234375 -20.703125 L 74.015625 -20.703125 C 71.523438 -14.179688 67.570312 -8.90625 62.15625 -4.875 C 56.75 -0.851562 49.78125 1.15625 41.25 1.15625 C 30.425781 1.15625 21.609375 -2.4375 14.796875 -9.625 C 8.191406 -16.625 4.890625 -25.394531 4.890625 -35.9375 C 4.890625 -46.570312 8.050781 -55.335938 14.375 -62.234375 C 21.082031 -69.421875 29.800781 -73.015625 40.53125 -73.015625 C 51.257812 -73.015625 59.976562 -69.421875 66.6875 -62.234375 C 73.007812 -55.335938 76.171875 -46.570312 76.171875 -35.9375 L 76.171875 -31.625 L 15.953125 -31.625 C 16.722656 -25.007812 19.359375 -19.546875 23.859375 -15.234375 C 28.460938 -10.828125 34.304688 -8.625 41.390625 -8.625 Z M 40.53125 -63.25 C 33.914062 -63.25 28.359375 -61.1875 23.859375 -57.0625 C 19.640625 -53.132812 17.050781 -48.007812 16.09375 -41.6875 L 64.96875 -41.6875 C 64.007812 -48.007812 61.421875 -53.132812 57.203125 -57.0625 C 52.703125 -61.1875 47.144531 -63.25 40.53125 -63.25 Z M 40.53125 -63.25" transform="translate(247.306 374.072)"/></g></g></g><g fill="#8C52FF" fill-opacity=".302"><g><g><path d="M 20.125 -71.875 L 20.125 -60.65625 C 22.707031 -64.101562 25.867188 -67.023438 29.609375 -69.421875 C 33.347656 -71.816406 37.613281 -73.015625 42.40625 -73.015625 C 47.195312 -73.015625 51.316406 -72.34375 54.765625 -71 C 58.210938 -69.664062 61.226562 -67.65625 63.8125 -64.96875 C 69.757812 -59.125 72.734375 -51.410156 72.734375 -41.828125 L 72.734375 0 L 61.953125 0 L 61.953125 -41.546875 C 61.953125 -48.148438 60.082031 -53.414062 56.34375 -57.34375 C 52.601562 -61.28125 47.765625 -63.25 41.828125 -63.25 C 35.785156 -63.25 30.660156 -61.234375 26.453125 -57.203125 C 22.234375 -53.085938 20.125 -47.816406 20.125 -41.390625 L 20.125 0 L 9.34375 0 L 9.34375 -71.875 Z M 20.125 -71.875" transform="translate(327.365 374.072)"/></g></g></g><g fill="#8C52FF" fill-opacity=".302"><g><g><path d="M 41.390625 -8.625 C 51.066406 -8.625 58.015625 -12.648438 62.234375 -20.703125 L 74.015625 -20.703125 C 71.523438 -14.179688 67.570312 -8.90625 62.15625 -4.875 C 56.75 -0.851562 49.78125 1.15625 41.25 1.15625 C 30.425781 1.15625 21.609375 -2.4375 14.796875 -9.625 C 8.191406 -16.625 4.890625 -25.394531 4.890625 -35.9375 C 4.890625 -46.570312 8.050781 -55.335938 14.375 -62.234375 C 21.082031 -69.421875 29.800781 -73.015625 40.53125 -73.015625 C 51.257812 -73.015625 59.976562 -69.421875 66.6875 -62.234375 C 73.007812 -55.335938 76.171875 -46.570312 76.171875 -35.9375 L 76.171875 -31.625 L 15.953125 -31.625 C 16.722656 -25.007812 19.359375 -19.546875 23.859375 -15.234375 C 28.460938 -10.828125 34.304688 -8.625 41.390625 -8.625 Z M 40.53125 -63.25 C 33.914062 -63.25 28.359375 -61.1875 23.859375 -57.0625 C 19.640625 -53.132812 17.050781 -48.007812 16.09375 -41.6875 L 64.96875 -41.6875 C 64.007812 -48.007812 61.421875 -53.132812 57.203125 -57.0625 C 52.703125 -61.1875 47.144531 -63.25 40.53125 -63.25 Z M 40.53125 -63.25" transform="translate(408.719 374.072)"/></g></g></g><g fill="#8C52FF" fill-opacity=".302"><g><g><path d="M 47.28125 -73.015625 L 47.28125 -62.234375 L 46 -62.234375 C 38.238281 -62.234375 31.910156 -59.117188 27.015625 -52.890625 C 22.421875 -46.953125 20.125 -39.863281 20.125 -31.625 L 20.125 0 L 9.34375 0 L 9.34375 -71.875 L 20.125 -71.875 L 20.125 -54.1875 C 22.425781 -61.664062 27.410156 -67.175781 35.078125 -70.71875 C 38.234375 -72.25 42.0625 -73.015625 46.5625 -73.015625 Z M 47.28125 -73.015625" transform="translate(488.779 374.072)"/></g></g></g><g fill="#8C52FF" fill-opacity=".302"><g><g><path d="M 65.40625 -11.5 C 59.65625 -3.0625 51.078125 1.15625 39.671875 1.15625 C 29.316406 1.15625 20.882812 -2.4375 14.375 -9.625 C 8.050781 -16.71875 4.890625 -25.488281 4.890625 -35.9375 C 4.890625 -46.375 8.050781 -55.140625 14.375 -62.234375 C 20.882812 -69.421875 29.550781 -73.015625 40.375 -73.015625 C 51.207031 -73.015625 59.550781 -68.75 65.40625 -60.21875 L 65.40625 -71.875 L 76.171875 -71.875 L 76.171875 0 L 65.40625 0 Z M 41.109375 -8.625 C 48.867188 -8.625 55 -11.304688 59.5 -16.671875 C 63.8125 -21.753906 65.96875 -28.175781 65.96875 -35.9375 C 65.96875 -43.695312 63.8125 -50.113281 59.5 -55.1875 C 55 -60.5625 48.867188 -63.25 41.109375 -63.25 C 33.441406 -63.25 27.210938 -60.5625 22.421875 -55.1875 C 17.921875 -50.113281 15.671875 -43.695312 15.671875 -35.9375 C 15.671875 -28.175781 17.921875 -21.753906 22.421875 -16.671875 C 27.210938 -11.304688 33.441406 -8.625 41.109375 -8.625 Z M 41.109375 -8.625" transform="translate(538.367 374.072)"/></g></g></g><g fill="#8C52FF" fill-opacity=".302"><g><g><path d="M 17.109375 0 L 17.109375 -62.375 L 2.4375 -62.375 L 2.4375 -71.875 L 17.109375 -71.875 L 17.109375 -97.59375 L 27.890625 -97.59375 L 27.890625 -71.875 L 44.40625 -71.875 L 44.40625 -62.375 L 27.890625 -62.375 L 27.890625 0 Z M 17.109375 0" transform="translate(623.888 374.072)"/></g></g></g><g fill="#8C52FF" fill-opacity=".302"><g><g><path d="M 40.53125 -73.015625 C 51.257812 -73.015625 59.976562 -69.421875 66.6875 -62.234375 C 73.007812 -55.335938 76.171875 -46.570312 76.171875 -35.9375 C 76.171875 -25.300781 73.007812 -16.53125 66.6875 -9.625 C 59.976562 -2.4375 51.257812 1.15625 40.53125 1.15625 C 29.800781 1.15625 21.082031 -2.4375 14.375 -9.625 C 8.050781 -16.53125 4.890625 -25.300781 4.890625 -35.9375 C 4.890625 -46.570312 8.050781 -55.335938 14.375 -62.234375 C 21.082031 -69.421875 29.800781 -73.015625 40.53125 -73.015625 Z M 40.53125 -8.625 C 48.289062 -8.625 54.425781 -11.304688 58.9375 -16.671875 C 63.25 -21.753906 65.40625 -28.175781 65.40625 -35.9375 C 65.40625 -43.695312 63.25 -50.113281 58.9375 -55.1875 C 54.425781 -60.5625 48.289062 -63.25 40.53125 -63.25 C 32.769531 -63.25 26.640625 -60.5625 22.140625 -55.1875 C 17.828125 -50.113281 15.671875 -43.695312 15.671875 -35.9375 C 15.671875 -28.175781 17.828125 -21.753906 22.140625 -16.671875 C 26.640625 -11.304688 32.769531 -8.625 40.53125 -8.625 Z M 40.53125 -8.625" transform="translate(670.745 374.072)"/></g></g></g><g fill="#8C52FF" fill-opacity=".302"><g><g><path d="M 47.28125 -73.015625 L 47.28125 -62.234375 L 46 -62.234375 C 38.238281 -62.234375 31.910156 -59.117188 27.015625 -52.890625 C 22.421875 -46.953125 20.125 -39.863281 20.125 -31.625 L 20.125 0 L 9.34375 0 L 9.34375 -71.875 L 20.125 -71.875 L 20.125 -54.1875 C 22.425781 -61.664062 27.410156 -67.175781 35.078125 -70.71875 C 38.234375 -72.25 42.0625 -73.015625 46.5625 -73.015625 Z M 47.28125 -73.015625" transform="translate(751.811 374.072)"/></g></g></g><g fill="#8C52FF" fill-opacity=".502"><g><g><path d="M 18.390625 -82.078125 C 22.421875 -86.484375 27.3125 -89.953125 33.0625 -92.484375 C 38.8125 -95.023438 44.75 -96.296875 50.875 -96.296875 C 57.007812 -96.296875 62.328125 -95.625 66.828125 -94.28125 C 71.335938 -92.945312 75.410156 -91.128906 79.046875 -88.828125 C 86.617188 -83.941406 92.179688 -77.425781 95.734375 -69.28125 L 83.9375 -69.28125 C 81.0625 -74.457031 77.0625 -78.503906 71.9375 -81.421875 C 66.8125 -84.347656 60.988281 -85.8125 54.46875 -85.8125 C 47.957031 -85.8125 42.398438 -84.828125 37.796875 -82.859375 C 33.203125 -80.898438 29.320312 -78.191406 26.15625 -74.734375 C 19.644531 -67.648438 16.390625 -58.597656 16.390625 -47.578125 C 16.390625 -36.460938 19.597656 -27.40625 26.015625 -20.40625 C 32.816406 -13.03125 41.820312 -9.34375 53.03125 -9.34375 C 62.039062 -9.34375 69.804688 -12.117188 76.328125 -17.671875 C 83.222656 -23.523438 86.671875 -31.242188 86.671875 -40.828125 L 51.890625 -40.828125 L 51.890625 -50.59375 L 96.59375 -50.59375 L 96.59375 0 L 86.671875 0 L 86.671875 -16.8125 C 81.210938 -8.570312 73.644531 -3.0625 63.96875 -0.28125 C 60.414062 0.675781 55.738281 1.15625 49.9375 1.15625 C 44.144531 1.15625 38.375 -0.113281 32.625 -2.65625 C 26.875 -5.195312 21.988281 -8.671875 17.96875 -13.078125 C 9.726562 -22.085938 5.609375 -33.585938 5.609375 -47.578125 C 5.609375 -61.378906 9.867188 -72.878906 18.390625 -82.078125 Z M 18.390625 -82.078125" transform="translate(147.19 375.687)"/></g></g></g><g fill="#8C52FF" fill-opacity=".502"><g><g><path d="M 41.390625 -8.625 C 51.066406 -8.625 58.015625 -12.648438 62.234375 -20.703125 L 74.015625 -20.703125 C 71.523438 -14.179688 67.570312 -8.90625 62.15625 -4.875 C 56.75 -0.851562 49.78125 1.15625 41.25 1.15625 C 30.425781 1.15625 21.609375 -2.4375 14.796875 -9.625 C 8.191406 -16.625 4.890625 -25.394531 4.890625 -35.9375 C 4.890625 -46.570312 8.050781 -55.335938 14.375 -62.234375 C 21.082031 -69.421875 29.800781 -73.015625 40.53125 -73.015625 C 51.257812 -73.015625 59.976562 -69.421875 66.6875 -62.234375 C 73.007812 -55.335938 76.171875 -46.570312 76.171875 -35.9375 L 76.171875 -31.625 L 15.953125 -31.625 C 16.722656 -25.007812 19.359375 -19.546875 23.859375 -15.234375 C 28.460938 -10.828125 34.304688 -8.625 41.390625 -8.625 Z M 40.53125 -63.25 C 33.914062 -63.25 28.359375 -61.1875 23.859375 -57.0625 C 19.640625 -53.132812 17.050781 -48.007812 16.09375 -41.6875 L 64.96875 -41.6875 C 64.007812 -48.007812 61.421875 -53.132812 57.203125 -57.0625 C 52.703125 -61.1875 47.144531 -63.25 40.53125 -63.25 Z M 40.53125 -63.25" transform="translate(251.11 375.687)"/></g></g></g><g fill="#8C52FF" fill-opacity=".502"><g><g><path d="M 20.125 -71.875 L 20.125 -60.65625 C 22.707031 -64.101562 25.867188 -67.023438 29.609375 -69.421875 C 33.347656 -71.816406 37.613281 -73.015625 42.40625 -73.015625 C 47.195312 -73.015625 51.316406 -72.34375 54.765625 -71 C 58.210938 -69.664062 61.226562 -67.65625 63.8125 -64.96875 C 69.757812 -59.125 72.734375 -51.410156 72.734375 -41.828125 L 72.734375 0 L 61.953125 0 L 61.953125 -41.546875 C 61.953125 -48.148438 60.082031 -53.414062 56.34375 -57.34375 C 52.601562 -61.28125 47.765625 -63.25 41.828125 -63.25 C 35.785156 -63.25 30.660156 -61.234375 26.453125 -57.203125 C 22.234375 -53.085938 20.125 -47.816406 20.125 -41.390625 L 20.125 0 L 9.34375 0 L 9.34375 -71.875 Z M 20.125 -71.875" transform="translate(331.17 375.687)"/></g></g></g><g fill="#8C52FF" fill-opacity=".502"><g><g><path d="M 41.390625 -8.625 C 51.066406 -8.625 58.015625 -12.648438 62.234375 -20.703125 L 74.015625 -20.703125 C 71.523438 -14.179688 67.570312 -8.90625 62.15625 -4.875 C 56.75 -0.851562 49.78125 1.15625 41.25 1.15625 C 30.425781 1.15625 21.609375 -2.4375 14.796875 -9.625 C 8.191406 -16.625 4.890625 -25.394531 4.890625 -35.9375 C 4.890625 -46.570312 8.050781 -55.335938 14.375 -62.234375 C 21.082031 -69.421875 29.800781 -73.015625 40.53125 -73.015625 C 51.257812 -73.015625 59.976562 -69.421875 66.6875 -62.234375 C 73.007812 -55.335938 76.171875 -46.570312 76.171875 -35.9375 L 76.171875 -31.625 L 15.953125 -31.625 C 16.722656 -25.007812 19.359375 -19.546875 23.859375 -15.234375 C 28.460938 -10.828125 34.304688 -8.625 41.390625 -8.625 Z M 40.53125 -63.25 C 33.914062 -63.25 28.359375 -61.1875 23.859375 -57.0625 C 19.640625 -53.132812 17.050781 -48.007812 16.09375 -41.6875 L 64.96875 -41.6875 C 64.007812 -48.007812 61.421875 -53.132812 57.203125 -57.0625 C 52.703125 -61.1875 47.144531 -63.25 40.53125 -63.25 Z M 40.53125 -63.25" transform="translate(412.523 375.687)"/></g></g></g><g fill="#8C52FF" fill-opacity=".502"><g><g><path d="M 47.28125 -73.015625 L 47.28125 -62.234375 L 46 -62.234375 C 38.238281 -62.234375 31.910156 -59.117188 27.015625 -52.890625 C 22.421875 -46.953125 20.125 -39.863281 20.125 -31.625 L 20.125 0 L 9.34375 0 L 9.34375 -71.875 L 20.125 -71.875 L 20.125 -54.1875 C 22.425781 -61.664062 27.410156 -67.175781 35.078125 -70.71875 C 38.234375 -72.25 42.0625 -73.015625 46.5625 -73.015625 Z M 47.28125 -73.015625" transform="translate(492.582 375.687)"/></g></g></g><g fill="#8C52FF" fill-opacity=".502"><g><g><path d="M 65.40625 -11.5 C 59.65625 -3.0625 51.078125 1.15625 39.671875 1.15625 C 29.316406 1.15625 20.882812 -2.4375 14.375 -9.625 C 8.050781 -16.71875 4.890625 -25.488281 4.890625 -35.9375 C 4.890625 -46.375 8.050781 -55.140625 14.375 -62.234375 C 20.882812 -69.421875 29.550781 -73.015625 40.375 -73.015625 C 51.207031 -73.015625 59.550781 -68.75 65.40625 -60.21875 L 65.40625 -71.875 L 76.171875 -71.875 L 76.171875 0 L 65.40625 0 Z M 41.109375 -8.625 C 48.867188 -8.625 55 -11.304688 59.5 -16.671875 C 63.8125 -21.753906 65.96875 -28.175781 65.96875 -35.9375 C 65.96875 -43.695312 63.8125 -50.113281 59.5 -55.1875 C 55 -60.5625 48.867188 -63.25 41.109375 -63.25 C 33.441406 -63.25 27.210938 -60.5625 22.421875 -55.1875 C 17.921875 -50.113281 15.671875 -43.695312 15.671875 -35.9375 C 15.671875 -28.175781 17.921875 -21.753906 22.421875 -16.671875 C 27.210938 -11.304688 33.441406 -8.625 41.109375 -8.625 Z M 41.109375 -8.625" transform="translate(542.17 375.687)"/></g></g></g><g fill="#8C52FF" fill-opacity=".502"><g><g><path d="M 17.109375 0 L 17.109375 -62.375 L 2.4375 -62.375 L 2.4375 -71.875 L 17.109375 -71.875 L 17.109375 -97.59375 L 27.890625 -97.59375 L 27.890625 -71.875 L 44.40625 -71.875 L 44.40625 -62.375 L 27.890625 -62.375 L 27.890625 0 Z M 17.109375 0" transform="translate(627.692 375.687)"/></g></g></g><g fill="#8C52FF" fill-opacity=".502"><g><g><path d="M 40.53125 -73.015625 C 51.257812 -73.015625 59.976562 -69.421875 66.6875 -62.234375 C 73.007812 -55.335938 76.171875 -46.570312 76.171875 -35.9375 C 76.171875 -25.300781 73.007812 -16.53125 66.6875 -9.625 C 59.976562 -2.4375 51.257812 1.15625 40.53125 1.15625 C 29.800781 1.15625 21.082031 -2.4375 14.375 -9.625 C 8.050781 -16.53125 4.890625 -25.300781 4.890625 -35.9375 C 4.890625 -46.570312 8.050781 -55.335938 14.375 -62.234375 C 21.082031 -69.421875 29.800781 -73.015625 40.53125 -73.015625 Z M 40.53125 -8.625 C 48.289062 -8.625 54.425781 -11.304688 58.9375 -16.671875 C 63.25 -21.753906 65.40625 -28.175781 65.40625 -35.9375 C 65.40625 -43.695312 63.25 -50.113281 58.9375 -55.1875 C 54.425781 -60.5625 48.289062 -63.25 40.53125 -63.25 C 32.769531 -63.25 26.640625 -60.5625 22.140625 -55.1875 C 17.828125 -50.113281 15.671875 -43.695312 15.671875 -35.9375 C 15.671875 -28.175781 17.828125 -21.753906 22.140625 -16.671875 C 26.640625 -11.304688 32.769531 -8.625 40.53125 -8.625 Z M 40.53125 -8.625" transform="translate(674.55 375.687)"/></g></g></g><g fill="#8C52FF" fill-opacity=".502"><g><g><path d="M 47.28125 -73.015625 L 47.28125 -62.234375 L 46 -62.234375 C 38.238281 -62.234375 31.910156 -59.117188 27.015625 -52.890625 C 22.421875 -46.953125 20.125 -39.863281 20.125 -31.625 L 20.125 0 L 9.34375 0 L 9.34375 -71.875 L 20.125 -71.875 L 20.125 -54.1875 C 22.425781 -61.664062 27.410156 -67.175781 35.078125 -70.71875 C 38.234375 -72.25 42.0625 -73.015625 46.5625 -73.015625 Z M 47.28125 -73.015625" transform="translate(755.615 375.687)"/></g></g></g><g fill="#E7E5E5"><g><g><path d="M 18.390625 -82.078125 C 22.421875 -86.484375 27.3125 -89.953125 33.0625 -92.484375 C 38.8125 -95.023438 44.75 -96.296875 50.875 -96.296875 C 57.007812 -96.296875 62.328125 -95.625 66.828125 -94.28125 C 71.335938 -92.945312 75.410156 -91.128906 79.046875 -88.828125 C 86.617188 -83.941406 92.179688 -77.425781 95.734375 -69.28125 L 83.9375 -69.28125 C 81.0625 -74.457031 77.0625 -78.503906 71.9375 -81.421875 C 66.8125 -84.347656 60.988281 -85.8125 54.46875 -85.8125 C 47.957031 -85.8125 42.398438 -84.828125 37.796875 -82.859375 C 33.203125 -80.898438 29.320312 -78.191406 26.15625 -74.734375 C 19.644531 -67.648438 16.390625 -58.597656 16.390625 -47.578125 C 16.390625 -36.460938 19.597656 -27.40625 26.015625 -20.40625 C 32.816406 -13.03125 41.820312 -9.34375 53.03125 -9.34375 C 62.039062 -9.34375 69.804688 -12.117188 76.328125 -17.671875 C 83.222656 -23.523438 86.671875 -31.242188 86.671875 -40.828125 L 51.890625 -40.828125 L 51.890625 -50.59375 L 96.59375 -50.59375 L 96.59375 0 L 86.671875 0 L 86.671875 -16.8125 C 81.210938 -8.570312 73.644531 -3.0625 63.96875 -0.28125 C 60.414062 0.675781 55.738281 1.15625 49.9375 1.15625 C 44.144531 1.15625 38.375 -0.113281 32.625 -2.65625 C 26.875 -5.195312 21.988281 -8.671875 17.96875 -13.078125 C 9.726562 -22.085938 5.609375 -33.585938 5.609375 -47.578125 C 5.609375 -61.378906 9.867188 -72.878906 18.390625 -82.078125 Z M 18.390625 -82.078125" transform="translate(150.994 377.301)"/></g></g></g><g fill="#E7E5E5"><g><g><path d="M 41.390625 -8.625 C 51.066406 -8.625 58.015625 -12.648438 62.234375 -20.703125 L 74.015625 -20.703125 C 71.523438 -14.179688 67.570312 -8.90625 62.15625 -4.875 C 56.75 -0.851562 49.78125 1.15625 41.25 1.15625 C 30.425781 1.15625 21.609375 -2.4375 14.796875 -9.625 C 8.191406 -16.625 4.890625 -25.394531 4.890625 -35.9375 C 4.890625 -46.570312 8.050781 -55.335938 14.375 -62.234375 C 21.082031 -69.421875 29.800781 -73.015625 40.53125 -73.015625 C 51.257812 -73.015625 59.976562 -69.421875 66.6875 -62.234375 C 73.007812 -55.335938 76.171875 -46.570312 76.171875 -35.9375 L 76.171875 -31.625 L 15.953125 -31.625 C 16.722656 -25.007812 19.359375 -19.546875 23.859375 -15.234375 C 28.460938 -10.828125 34.304688 -8.625 41.390625 -8.625 Z M 40.53125 -63.25 C 33.914062 -63.25 28.359375 -61.1875 23.859375 -57.0625 C 19.640625 -53.132812 17.050781 -48.007812 16.09375 -41.6875 L 64.96875 -41.6875 C 64.007812 -48.007812 61.421875 -53.132812 57.203125 -57.0625 C 52.703125 -61.1875 47.144531 -63.25 40.53125 -63.25 Z M 40.53125 -63.25" transform="translate(254.913 377.301)"/></g></g></g><g fill="#E7E5E5"><g><g><path d="M 20.125 -71.875 L 20.125 -60.65625 C 22.707031 -64.101562 25.867188 -67.023438 29.609375 -69.421875 C 33.347656 -71.816406 37.613281 -73.015625 42.40625 -73.015625 C 47.195312 -73.015625 51.316406 -72.34375 54.765625 -71 C 58.210938 -69.664062 61.226562 -67.65625 63.8125 -64.96875 C 69.757812 -59.125 72.734375 -51.410156 72.734375 -41.828125 L 72.734375 0 L 61.953125 0 L 61.953125 -41.546875 C 61.953125 -48.148438 60.082031 -53.414062 56.34375 -57.34375 C 52.601562 -61.28125 47.765625 -63.25 41.828125 -63.25 C 35.785156 -63.25 30.660156 -61.234375 26.453125 -57.203125 C 22.234375 -53.085938 20.125 -47.816406 20.125 -41.390625 L 20.125 0 L 9.34375 0 L 9.34375 -71.875 Z M 20.125 -71.875" transform="translate(334.973 377.301)"/></g></g></g><g fill="#E7E5E5"><g><g><path d="M 41.390625 -8.625 C 51.066406 -8.625 58.015625 -12.648438 62.234375 -20.703125 L 74.015625 -20.703125 C 71.523438 -14.179688 67.570312 -8.90625 62.15625 -4.875 C 56.75 -0.851562 49.78125 1.15625 41.25 1.15625 C 30.425781 1.15625 21.609375 -2.4375 14.796875 -9.625 C 8.191406 -16.625 4.890625 -25.394531 4.890625 -35.9375 C 4.890625 -46.570312 8.050781 -55.335938 14.375 -62.234375 C 21.082031 -69.421875 29.800781 -73.015625 40.53125 -73.015625 C 51.257812 -73.015625 59.976562 -69.421875 66.6875 -62.234375 C 73.007812 -55.335938 76.171875 -46.570312 76.171875 -35.9375 L 76.171875 -31.625 L 15.953125 -31.625 C 16.722656 -25.007812 19.359375 -19.546875 23.859375 -15.234375 C 28.460938 -10.828125 34.304688 -8.625 41.390625 -8.625 Z M 40.53125 -63.25 C 33.914062 -63.25 28.359375 -61.1875 23.859375 -57.0625 C 19.640625 -53.132812 17.050781 -48.007812 16.09375 -41.6875 L 64.96875 -41.6875 C 64.007812 -48.007812 61.421875 -53.132812 57.203125 -57.0625 C 52.703125 -61.1875 47.144531 -63.25 40.53125 -63.25 Z M 40.53125 -63.25" transform="translate(416.326 377.301)"/></g></g></g><g fill="#E7E5E5"><g><g><path d="M 47.28125 -73.015625 L 47.28125 -62.234375 L 46 -62.234375 C 38.238281 -62.234375 31.910156 -59.117188 27.015625 -52.890625 C 22.421875 -46.953125 20.125 -39.863281 20.125 -31.625 L 20.125 0 L 9.34375 0 L 9.34375 -71.875 L 20.125 -71.875 L 20.125 -54.1875 C 22.425781 -61.664062 27.410156 -67.175781 35.078125 -70.71875 C 38.234375 -72.25 42.0625 -73.015625 46.5625 -73.015625 Z M 47.28125 -73.015625" transform="translate(496.386 377.301)"/></g></g></g><g fill="#E7E5E5"><g><g><path d="M 65.40625 -11.5 C 59.65625 -3.0625 51.078125 1.15625 39.671875 1.15625 C 29.316406 1.15625 20.882812 -2.4375 14.375 -9.625 C 8.050781 -16.71875 4.890625 -25.488281 4.890625 -35.9375 C 4.890625 -46.375 8.050781 -55.140625 14.375 -62.234375 C 20.882812 -69.421875 29.550781 -73.015625 40.375 -73.015625 C 51.207031 -73.015625 59.550781 -68.75 65.40625 -60.21875 L 65.40625 -71.875 L 76.171875 -71.875 L 76.171875 0 L 65.40625 0 Z M 41.109375 -8.625 C 48.867188 -8.625 55 -11.304688 59.5 -16.671875 C 63.8125 -21.753906 65.96875 -28.175781 65.96875 -35.9375 C 65.96875 -43.695312 63.8125 -50.113281 59.5 -55.1875 C 55 -60.5625 48.867188 -63.25 41.109375 -63.25 C 33.441406 -63.25 27.210938 -60.5625 22.421875 -55.1875 C 17.921875 -50.113281 15.671875 -43.695312 15.671875 -35.9375 C 15.671875 -28.175781 17.921875 -21.753906 22.421875 -16.671875 C 27.210938 -11.304688 33.441406 -8.625 41.109375 -8.625 Z M 41.109375 -8.625" transform="translate(545.974 377.301)"/></g></g></g><g fill="#E7E5E5"><g><g><path d="M 17.109375 0 L 17.109375 -62.375 L 2.4375 -62.375 L 2.4375 -71.875 L 17.109375 -71.875 L 17.109375 -97.59375 L 27.890625 -97.59375 L 27.890625 -71.875 L 44.40625 -71.875 L 44.40625 -62.375 L 27.890625 -62.375 L 27.890625 0 Z M 17.109375 0" transform="translate(631.496 377.301)"/></g></g></g><g fill="#E7E5E5"><g><g><path d="M 40.53125 -73.015625 C 51.257812 -73.015625 59.976562 -69.421875 66.6875 -62.234375 C 73.007812 -55.335938 76.171875 -46.570312 76.171875 -35.9375 C 76.171875 -25.300781 73.007812 -16.53125 66.6875 -9.625 C 59.976562 -2.4375 51.257812 1.15625 40.53125 1.15625 C 29.800781 1.15625 21.082031 -2.4375 14.375 -9.625 C 8.050781 -16.53125 4.890625 -25.300781 4.890625 -35.9375 C 4.890625 -46.570312 8.050781 -55.335938 14.375 -62.234375 C 21.082031 -69.421875 29.800781 -73.015625 40.53125 -73.015625 Z M 40.53125 -8.625 C 48.289062 -8.625 54.425781 -11.304688 58.9375 -16.671875 C 63.25 -21.753906 65.40625 -28.175781 65.40625 -35.9375 C 65.40625 -43.695312 63.25 -50.113281 58.9375 -55.1875 C 54.425781 -60.5625 48.289062 -63.25 40.53125 -63.25 C 32.769531 -63.25 26.640625 -60.5625 22.140625 -55.1875 C 17.828125 -50.113281 15.671875 -43.695312 15.671875 -35.9375 C 15.671875 -28.175781 17.828125 -21.753906 22.140625 -16.671875 C 26.640625 -11.304688 32.769531 -8.625 40.53125 -8.625 Z M 40.53125 -8.625" transform="translate(678.353 377.301)"/></g></g></g><g fill="#E7E5E5"><g><g><path d="M 47.28125 -73.015625 L 47.28125 -62.234375 L 46 -62.234375 C 38.238281 -62.234375 31.910156 -59.117188 27.015625 -52.890625 C 22.421875 -46.953125 20.125 -39.863281 20.125 -31.625 L 20.125 0 L 9.34375 0 L 9.34375 -71.875 L 20.125 -71.875 L 20.125 -54.1875 C 22.425781 -61.664062 27.410156 -67.175781 35.078125 -70.71875 C 38.234375 -72.25 42.0625 -73.015625 46.5625 -73.015625 Z M 47.28125 -73.015625" transform="translate(759.419 377.301)"/></g></g></g></svg>