<?xml version="1.0" encoding="utf-8"?>
<!-- Generator: Adobe Illustrator 23.0.4, SVG Export Plug-In . SVG Version: 6.00 Build 0)  -->
<svg version="1.1" id="Layer_1" xmlns="http://www.w3.org/2000/svg" xmlns:xlink="http://www.w3.org/1999/xlink" x="0px" y="0px"
	 viewBox="0 0 72 72" style="enable-background:new 0 0 72 72;" xml:space="preserve">
<style type="text/css">
	.st0{fill:#252E3C;}
	.st1{fill:#FFFFFF;}
	.st2{fill:#FF9900;}
</style>
<g id="Twitter">
	<rect class="st0" width="72" height="72"/>
</g>
<g id="Guides">
</g>
<path class="st1" d="M26.8,35.7c0-1.5,0.4-2.8,1.1-3.9s1.8-1.9,3-2.4c1.2-0.5,2.6-0.9,4.4-1.1c0.6-0.1,1.5-0.2,2.9-0.3v-0.6
	c0-1.4-0.2-2.3-0.5-2.8c-0.5-0.7-1.2-1-2.2-1h-0.3c-0.7,0.1-1.3,0.3-1.9,0.7c-0.5,0.4-0.9,0.9-1,1.6c-0.1,0.4-0.3,0.7-0.7,0.8
	L28,26.3c-0.4-0.1-0.6-0.3-0.6-0.6c0-0.1,0-0.1,0-0.2c0.4-1.9,1.3-3.4,2.7-4.3c1.5-0.9,3.1-1.5,5.1-1.6H36c2.5,0,4.4,0.6,5.8,1.9
	c0.2,0.2,0.4,0.5,0.6,0.7c0.2,0.3,0.3,0.5,0.4,0.7c0.1,0.2,0.2,0.5,0.3,0.9s0.2,0.6,0.2,0.8c0,0.1,0.1,0.4,0.1,0.9s0,0.7,0,0.8v7.9
	c0,0.6,0.1,1.1,0.2,1.6c0.2,0.5,0.3,0.8,0.5,1s0.4,0.5,0.8,1c0.1,0.2,0.2,0.4,0.2,0.5c0,0.2-0.1,0.3-0.3,0.5
	c-1.8,1.6-2.8,2.4-2.9,2.6c-0.3,0.2-0.6,0.2-0.9,0.1c-0.3-0.3-0.6-0.5-0.8-0.8s-0.4-0.4-0.5-0.5s-0.3-0.3-0.5-0.6s-0.4-0.5-0.5-0.6
	c-1.2,1.3-2.4,2.2-3.6,2.5c-0.7,0.2-1.7,0.3-2.7,0.3c-1.7,0-3.1-0.5-4.1-1.6S26.8,37.6,26.8,35.7z M32.4,35c0,0.9,0.2,1.5,0.6,2
	c0.4,0.5,1,0.8,1.7,0.8c0.1,0,0.2,0,0.3,0s0.2,0,0.2,0c0.9-0.2,1.6-0.8,2.1-1.8c0.2-0.4,0.4-0.9,0.5-1.4s0.2-0.9,0.2-1.2
	s0-0.8,0-1.5v-0.8c-1.3,0-2.2,0.1-2.9,0.3C33.3,31.9,32.4,33.2,32.4,35z"/>
<path class="st2" d="M18.1,45.1c0.1-0.2,0.3-0.2,0.5,0c5.5,3.2,11.4,4.7,17.8,4.7c4.3,0,8.5-0.8,12.7-2.4c0.1,0,0.3-0.1,0.5-0.2
	C49.8,47.1,50,47,50,47c0.3-0.1,0.6-0.1,0.8,0.2s0.1,0.5-0.2,0.7c-0.4,0.3-0.9,0.6-1.5,1c-1.9,1.1-4,2-6.3,2.6s-4.6,0.9-6.8,0.9
	c-3.4,0-6.6-0.6-9.7-1.8c-3-1.2-5.7-2.9-8.1-5c-0.1-0.1-0.2-0.2-0.2-0.3C18,45.2,18,45.1,18.1,45.1z M47.3,45.6
	c0-0.1,0.1-0.2,0.2-0.3c0.5-0.4,1.1-0.6,1.6-0.8c0.8-0.2,1.6-0.3,2.4-0.4c0.2,0,0.4,0,0.6,0c1,0.1,1.6,0.3,1.8,0.5
	c0.1,0.1,0.1,0.3,0.1,0.6v0.2c0,0.8-0.2,1.7-0.6,2.7c-0.4,1-1,1.9-1.7,2.5c-0.1,0.1-0.2,0.1-0.3,0.1h-0.1c-0.1-0.1-0.2-0.2-0.1-0.4
	c0.8-1.9,1.2-3.2,1.2-4c0-0.2,0-0.4-0.1-0.5c-0.2-0.3-0.8-0.4-1.8-0.4c-0.4,0-0.8,0-1.3,0.1s-1,0.1-1.5,0.2c-0.1,0-0.2,0-0.3-0.1
	C47.2,45.8,47.2,45.8,47.3,45.6C47.3,45.7,47.3,45.7,47.3,45.6z"/>
</svg>
