<?xml version="1.0" encoding="utf-8"?>
<!-- Generator: Adobe Illustrator 23.0.3, SVG Export Plug-In . SVG Version: 6.00 Build 0)  -->
<svg version="1.1" id="Layer_1" xmlns="http://www.w3.org/2000/svg" xmlns:xlink="http://www.w3.org/1999/xlink" x="0px" y="0px"
	 viewBox="0 0 72 72" style="enable-background:new 0 0 72 72;" xml:space="preserve">
<style type="text/css">
	.st0{fill:url(#SVGID_1_);}
	.st1{fill:#FFFFFF;}
</style>
<g id="Twitter">
	<linearGradient id="SVGID_1_" gradientUnits="userSpaceOnUse" x1="9.094947e-13" y1="72" x2="72" y2="7.105427e-13">
		<stop  offset="0" style="stop-color:#FEB811"/>
		<stop  offset="1" style="stop-color:#9E27AD"/>
	</linearGradient>
	<rect class="st0" width="72" height="72"/>
</g>
<g id="Guides">
</g>
<g>
	<path class="st1" d="M44.1,18H27.9c-5.5,0-9.9,4.5-9.9,9.9v16.1c0,5.5,4.5,9.9,9.9,9.9h16.1c5.5,0,9.9-4.5,9.9-9.9V27.9
		C54,22.5,49.5,18,44.1,18z M50.8,44.1c0,3.7-3,6.7-6.7,6.7H27.9c-3.7,0-6.7-3-6.7-6.7V27.9c0-3.7,3-6.7,6.7-6.7h16.1
		c3.7,0,6.7,3,6.7,6.7L50.8,44.1L50.8,44.1z"/>
	<path class="st1" d="M36,26.7c-5.1,0-9.3,4.2-9.3,9.3c0,5.1,4.2,9.3,9.3,9.3s9.3-4.2,9.3-9.3C45.3,30.9,41.1,26.7,36,26.7z
		 M36,42.1c-3.4,0-6.1-2.7-6.1-6.1c0-3.4,2.7-6.1,6.1-6.1s6.1,2.7,6.1,6.1C42.1,39.4,39.4,42.1,36,42.1z"/>
	<path class="st1" d="M45.7,24c-0.6,0-1.2,0.2-1.7,0.7c-0.4,0.4-0.7,1-0.7,1.7c0,0.6,0.3,1.2,0.7,1.7c0.4,0.4,1,0.7,1.7,0.7
		c0.6,0,1.2-0.3,1.7-0.7c0.4-0.4,0.7-1,0.7-1.7c0-0.6-0.2-1.2-0.7-1.7C46.9,24.3,46.3,24,45.7,24z"/>
</g>
</svg>
