<?xml version="1.0" encoding="utf-8"?>
<!-- Generator: Adobe Illustrator 24.1.2, SVG Export Plug-In . SVG Version: 6.00 Build 0)  -->
<svg version="1.1" id="Layer_1" xmlns="http://www.w3.org/2000/svg" xmlns:xlink="http://www.w3.org/1999/xlink" x="0px" y="0px"
	 viewBox="0 0 72 72" style="enable-background:new 0 0 72 72;" xml:space="preserve">
<style type="text/css">
	.st0{fill:#FFFC00;}
	.st1{fill:#FFFFFF;}
</style>
<g id="Twitter">
	<rect class="st0" width="72" height="72"/>
</g>
<g id="Guides">
</g>
<g id="PRIMARY_-_GHOST">
	<path class="st1" d="M51.4,44.5c-5.6-2.7-6.5-6.9-6.5-7.2c0-0.4-0.1-0.7,0.3-1c0.4-0.4,2.2-1.5,2.7-1.8c0.8-0.6,1.2-1.1,0.9-1.8
		c-0.2-0.5-0.6-0.7-1.1-0.7c-0.1,0-0.3,0-0.4,0c-0.9,0.2-1.8,0.6-2.3,0.8c-0.1,0-0.1,0-0.2,0c-0.3,0-0.4-0.1-0.3-0.4
		c0.1-1,0.2-2.9,0-4.6c-0.2-2.4-1-3.7-1.9-4.7c-0.5-0.5-2.5-2.7-6.6-2.7s-6.1,2.2-6.6,2.7c-0.9,1.1-1.7,2.3-1.9,4.7
		c-0.2,1.8,0,3.7,0,4.6c0,0.3-0.1,0.4-0.3,0.4c-0.1,0-0.1,0-0.2,0c-0.5-0.1-1.4-0.6-2.3-0.8c-0.1,0-0.3,0-0.4,0
		c-0.5,0-0.9,0.2-1.1,0.7c-0.3,0.7,0.1,1.3,0.9,1.8c0.5,0.3,2.3,1.4,2.7,1.8c0.4,0.4,0.4,0.7,0.3,1c0,0.3-0.9,4.5-6.5,7.2
		c-0.3,0.2-0.9,0.5,0.1,1c1.5,0.8,2.6,0.8,3.4,1.3c0.7,0.4,0.3,1.4,0.8,1.7c0.6,0.4,2.4,0,4.7,0.7c1.9,0.6,3.1,2.4,6.5,2.4
		s4.6-1.8,6.5-2.4c2.3-0.8,4.1-0.3,4.7-0.7c0.5-0.3,0.1-1.3,0.8-1.7c0.8-0.5,1.8-0.4,3.4-1.3C52.3,45,51.8,44.7,51.4,44.5z"/>
	<path d="M53.9,44.2c-0.3-0.7-0.7-1-1.3-1.3c-0.1-0.1-0.2-0.1-0.3-0.1c-0.2-0.1-0.3-0.2-0.5-0.3c-1.7-0.9-3-2-3.9-3.4
		c-0.3-0.4-0.5-0.8-0.7-1.2c-0.1-0.2-0.1-0.4,0-0.5c0.1-0.1,0.1-0.2,0.2-0.2c0.3-0.2,0.6-0.4,0.8-0.5c0.4-0.2,0.6-0.4,0.8-0.6
		c0.7-0.5,1.2-1,1.5-1.6c0.4-0.8,0.5-1.8,0.2-2.6c-0.5-1.2-1.6-2-3-2c-0.3,0-0.6,0-0.9,0.1c-0.1,0-0.2,0-0.2,0.1
		c0-0.8,0-1.7-0.1-2.6c-0.3-3-1.3-4.6-2.4-5.9c-0.7-0.8-1.5-1.5-2.5-2c-1.7-1-3.6-1.4-5.6-1.4c-2.1,0-4,0.5-5.6,1.4
		c-0.9,0.5-1.8,1.2-2.5,2c-1.1,1.3-2.2,2.9-2.4,5.9c-0.1,0.9-0.1,1.7-0.1,2.6c-0.1,0-0.1,0-0.2-0.1C24.9,30,24.6,30,24.3,30
		c-1.4,0-2.5,0.8-3,2c-0.3,0.9-0.3,1.8,0.2,2.6c0.3,0.6,0.8,1.1,1.5,1.6c0.2,0.1,0.5,0.3,0.8,0.6c0.2,0.1,0.5,0.3,0.8,0.5
		c0.1,0.1,0.2,0.1,0.2,0.2c0.1,0.1,0.1,0.3,0,0.5c-0.2,0.4-0.4,0.8-0.7,1.2c-0.9,1.3-2.2,2.4-3.8,3.3c-0.9,0.5-1.8,0.8-2.1,1.8
		c-0.3,0.8-0.1,1.7,0.6,2.4l0,0c0.3,0.3,0.6,0.5,0.9,0.7c0.7,0.4,1.5,0.7,2.3,0.9c0.2,0,0.3,0.1,0.5,0.2c0.3,0.2,0.2,0.6,0.6,1.1
		c0.2,0.3,0.4,0.5,0.7,0.7c0.7,0.5,1.6,0.5,2.5,0.6c0.8,0,1.7,0.1,2.7,0.4c0.4,0.1,0.9,0.4,1.4,0.7c1.2,0.8,2.9,1.8,5.8,1.8
		c2.8,0,4.5-1,5.8-1.8c0.5-0.3,1-0.6,1.4-0.7c1-0.3,1.9-0.4,2.7-0.4c0.9,0,1.7-0.1,2.5-0.6c0.3-0.2,0.6-0.5,0.8-0.8
		c0.3-0.4,0.2-0.7,0.5-0.9c0.1-0.1,0.3-0.2,0.4-0.2c0.8-0.2,1.6-0.5,2.3-0.9c0.4-0.2,0.7-0.5,1-0.8l0,0C54,45.8,54.2,45,53.9,44.2z
		 M51.3,45.6c-1.5,0.8-2.6,0.8-3.4,1.3c-0.7,0.4-0.3,1.4-0.8,1.7c-0.6,0.4-2.4,0-4.7,0.7c-1.9,0.6-3.1,2.4-6.5,2.4
		c-3.4,0-4.6-1.8-6.5-2.4c-2.3-0.8-4.1-0.3-4.7-0.7c-0.5-0.3-0.1-1.3-0.8-1.7c-0.8-0.5-1.8-0.4-3.4-1.3c-1-0.5-0.4-0.9-0.1-1
		c5.6-2.7,6.5-6.9,6.5-7.2c0-0.4,0.1-0.7-0.3-1c-0.4-0.4-2.2-1.5-2.7-1.8c-0.8-0.6-1.2-1.1-0.9-1.8c0.2-0.5,0.6-0.7,1.1-0.7
		c0.1,0,0.3,0,0.4,0c0.9,0.2,1.8,0.6,2.3,0.8c0.1,0,0.1,0,0.2,0c0.3,0,0.4-0.1,0.3-0.4c-0.1-1-0.2-2.9,0-4.6c0.2-2.4,1-3.7,1.9-4.7
		c0.4-0.5,2.6-2.7,6.6-2.7s6.1,2.2,6.6,2.7c0.9,1.1,1.7,2.3,1.9,4.7c0.2,1.8,0,3.7,0,4.6c0,0.3,0.1,0.4,0.3,0.4c0.1,0,0.1,0,0.2,0
		c0.5-0.1,1.4-0.6,2.3-0.8c0.1,0,0.3,0,0.4,0c0.5,0,0.9,0.2,1.1,0.7c0.3,0.7-0.1,1.3-0.9,1.8c-0.5,0.3-2.3,1.4-2.7,1.8
		c-0.4,0.4-0.4,0.7-0.3,1c0,0.3,0.9,4.5,6.5,7.2C51.8,44.7,52.3,45,51.3,45.6z"/>
</g>
</svg>
