<svg version="1.1" id="Layer_1" xmlns="http://www.w3.org/2000/svg" x="0" y="0" viewBox="0 0 72 72" xml:space="preserve"><style>.st0{fill:#25f4ee}.st1{fill:#fe2c55}</style><path d="M0 0h72v72H0V0z"/><g id="页面1_1_"><g id="编组-2_1_" transform="translate(.98)"><path id="路径_13_" class="st0" d="M31.494 32.18v-1.334c-.487-.078-.964-.19-1.457-.198a10.912 10.912 0 00-6.256 19.87 10.9 10.9 0 01-2.08-11.675c1.669-3.96 5.484-6.168 9.793-6.595v-.068z"/><path id="路径_12_" class="st0" d="M31.77 48.116c2.668-.003 4.865-2.153 4.982-4.82v-23.79h4.346A8.153 8.153 0 0140.972 18h-5.945v23.767a4.99 4.99 0 01-4.979 4.807c-.801-.007-1.612-.181-2.323-.552a5.05 5.05 0 004.044 2.094z"/><path id="路径_11_" class="st0" d="M49.216 27.578v-1.322c-1.6 0-3.164-.472-4.496-1.357a8.245 8.245 0 004.496 2.68z"/><path id="路径_10_" class="st1" d="M44.72 24.9a8.187 8.187 0 01-2.035-5.405h-1.587a8.233 8.233 0 003.622 5.404z"/><path id="路径_9_" class="st1" d="M30.037 36.593a4.99 4.99 0 00-4.822 3.805c-.544 2.225.082 4.575 2.51 5.624a5.018 5.018 0 01-.39-5.209 4.979 4.979 0 014.438-2.714c.499.007.995.084 1.472.23l-.015-5.968c-.487-.073-.98-.111-1.472-.115h-.264l-.034 4.507a4.781 4.781 0 00-1.423-.16z"/><path id="路径_8_" class="st1" d="M49.216 27.578l.012 4.565c-2.962-.006-5.857-.908-8.256-2.644v12.084c-.013 6.03-4.905 10.913-10.935 10.913a10.82 10.82 0 01-6.256-1.978 10.912 10.912 0 0018.904-7.428V31.04a14.132 14.132 0 008.256 2.644v-5.922a8.428 8.428 0 01-1.725-.184z"/><path id="路径_7_" d="M40.972 41.583V29.5a14.109 14.109 0 008.256 2.644v-4.6A8.244 8.244 0 0144.72 24.9a8.233 8.233 0 01-3.622-5.404h-4.346v23.802a4.99 4.99 0 01-9.027 2.725 4.99 4.99 0 012.3-9.406c.5.005.995.082 1.472.23v-4.6a10.9 10.9 0 00-7.727 18.398 10.82 10.82 0 006.267 1.852c6.03 0 10.922-4.882 10.935-10.913z" fill="#fff"/></g></g></svg>